<svg xmlns="http://www.w3.org/2000/svg" width="880" height="588" viewBox="0 0 880 588" role="img" aria-label="Trajetória profissional de Victor Maciel">
<title>Trajetória — Victor Maciel</title>
<style>
text{font-family:-apple-system,BlinkMacSystemFont,'Segoe UI',Helvetica,Arial,sans-serif}
.periodo{font-size:10px;font-weight:700;letter-spacing:.12em;fill:#60a5fa}
.agora{font-size:9px;font-weight:800;letter-spacing:.12em;fill:#34d399}
.cargo{font-size:15px;font-weight:700;fill:#f9fafb}
.empresa{font-size:12px;font-weight:600;fill:#b4bdcb}
.texto{font-size:11.5px;fill:#98a3b4}
.ano{font-size:11px;font-weight:800;fill:#f9fafb}
.tag rect{fill:#2563eb1f;stroke:#2563eb66}
.tag text{font-size:10px;font-weight:600;fill:#60a5fa}
.tag.ia rect{fill:#34d3991a;stroke:#34d39980}
.tag.ia text{fill:#34d399}
.eixo{stroke-dasharray:574;animation:desenha 1.8s ease-out both}
.cartao{animation:entra .8s cubic-bezier(.2,.7,.2,1) both}
.cartao.esq{--de:-28px}.cartao.dir{--de:28px}
.no{animation:surge .5s ease-out both;transform-box:fill-box;transform-origin:center}
.pulso{animation:pulso 2.2s ease-out infinite;transform-box:fill-box;transform-origin:center}
.pisca{animation:pisca 1.4s ease-in-out infinite}
.viajante{animation:viaja 5s ease-in-out infinite}
@keyframes desenha{from{stroke-dashoffset:574}to{stroke-dashoffset:0}}
@keyframes entra{from{opacity:0;transform:translateX(var(--de))}to{opacity:1;transform:none}}
@keyframes surge{from{opacity:0;transform:scale(.4)}to{opacity:1;transform:none}}
@keyframes pulso{from{opacity:.8;transform:scale(1)}to{opacity:0;transform:scale(1.7)}}
@keyframes pisca{50%{opacity:.25}}
@keyframes viaja{from{transform:translateY(0);opacity:0}12%{opacity:1}88%{opacity:1}to{transform:translateY(544px);opacity:0}}
@media (prefers-reduced-motion: reduce){*{animation:none!important}}
</style>
<defs>
<linearGradient id="gEixo" gradientUnits="userSpaceOnUse" x1="440.0" y1="14" x2="440.0" y2="574"><stop offset="0" stop-color="#34d399"/><stop offset=".35" stop-color="#2563eb"/><stop offset="1" stop-color="#2563eb" stop-opacity="0"/></linearGradient>
<radialGradient id="brilho" cx=".5" cy="0" r=".8"><stop offset="0" stop-color="#2563eb" stop-opacity=".2"/><stop offset="1" stop-color="#2563eb" stop-opacity="0"/></radialGradient>
<radialGradient id="gViajante"><stop offset="0" stop-color="#60a5fa"/><stop offset="1" stop-color="#60a5fa" stop-opacity="0"/></radialGradient>
<filter id="halo" x="-20%" y="-20%" width="140%" height="140%"><feGaussianBlur stdDeviation="14"/></filter>
<clipPath id="card"><rect width="880" height="588" rx="18"/></clipPath>
</defs>
<g clip-path="url(#card)">
<rect width="880" height="588" fill="#070b16"/>
<rect width="880" height="588" fill="url(#brilho)"/>
<line class="eixo" x1="440.0" y1="14" x2="440.0" y2="574" stroke="url(#gEixo)" stroke-width="3" stroke-linecap="round"/>
<circle class="viajante" cx="440.0" cy="30" r="8" fill="url(#gViajante)"/>
<g class="cartao esq" style="animation-delay:0.25s"><rect x="34.0" y="28" width="372" height="184" rx="16" fill="#2563eb" opacity=".35" filter="url(#halo)"/><rect x="34.0" y="28" width="372" height="184" rx="16" fill="#0c1426" stroke="#2563eb" stroke-width="1.5"/><text class="periodo" x="51.0" y="57">MAR 2026 — AGORA</text><rect x="323.0" y="45" width="66" height="18" rx="9" fill="#34d3991f" stroke="#34d39980"/><circle class="pisca" cx="334.5" cy="54" r="3" fill="#34d399"/><text class="agora" x="343.0" y="57.5">AGORA</text><text class="cargo" x="51.0" y="78">Desenvolvedor Full Stack</text><text class="empresa" x="51.0" y="96">NOCLAF Tech</text><text class="texto" x="51.0" y="116">AI Factory: plataformas web completas, do front-end à API,</text><text class="texto" x="51.0" y="132">com IA no fluxo de desenvolvimento.</text><g class="tag"><rect x="51.0" y="152" width="53.0" height="19" rx="9.5"/><text x="77.5" y="165" text-anchor="middle">Next.js</text></g><g class="tag"><rect x="109.0" y="152" width="43.0" height="19" rx="9.5"/><text x="130.5" y="165" text-anchor="middle">React</text></g><g class="tag"><rect x="157.0" y="152" width="68.0" height="19" rx="9.5"/><text x="191.0" y="165" text-anchor="middle">TypeScript</text></g><g class="tag"><rect x="230.0" y="152" width="48.0" height="19" rx="9.5"/><text x="254.0" y="165" text-anchor="middle">Python</text></g><g class="tag"><rect x="283.0" y="152" width="48.0" height="19" rx="9.5"/><text x="307.0" y="165" text-anchor="middle">Django</text></g><g class="tag"><rect x="336.0" y="152" width="33.0" height="19" rx="9.5"/><text x="352.5" y="165" text-anchor="middle">AWS</text></g><g class="tag ia"><rect x="51.0" y="176" width="48.0" height="19" rx="9.5"/><text x="75.0" y="189" text-anchor="middle">OpenAI</text></g><g class="tag ia"><rect x="104.0" y="176" width="73.0" height="19" rx="9.5"/><text x="140.5" y="189" text-anchor="middle">Claude Code</text></g><g class="tag ia"><rect x="182.0" y="176" width="43.0" height="19" rx="9.5"/><text x="203.5" y="189" text-anchor="middle">Codex</text></g></g><g class="cartao dir" style="animation-delay:0.43s"><rect x="474.0" y="102" width="372" height="184" rx="16" fill="#0c1426" stroke="#f9fafb24"/><text class="periodo" x="491.0" y="131">SET 2025 — MAR 2026</text><text class="cargo" x="491.0" y="152">Desenvolvedor Front-end</text><text class="empresa" x="491.0" y="170">NOCLAF Tech</text><text class="texto" x="491.0" y="190">Front-ends de sistemas de gestão, painéis administrativos,</text><text class="texto" x="491.0" y="206">portais e landing pages de captação.</text><g class="tag"><rect x="491.0" y="226" width="43.0" height="19" rx="9.5"/><text x="512.5" y="239" text-anchor="middle">React</text></g><g class="tag"><rect x="539.0" y="226" width="68.0" height="19" rx="9.5"/><text x="573.0" y="239" text-anchor="middle">TypeScript</text></g><g class="tag"><rect x="612.0" y="226" width="53.0" height="19" rx="9.5"/><text x="638.5" y="239" text-anchor="middle">Next.js</text></g><g class="tag"><rect x="670.0" y="226" width="53.0" height="19" rx="9.5"/><text x="696.5" y="239" text-anchor="middle">Angular</text></g><g class="tag"><rect x="728.0" y="226" width="78.0" height="19" rx="9.5"/><text x="767.0" y="239" text-anchor="middle">Tailwind CSS</text></g><g class="tag ia"><rect x="491.0" y="250" width="73.0" height="19" rx="9.5"/><text x="527.5" y="263" text-anchor="middle">Claude Code</text></g></g><g class="cartao esq" style="animation-delay:0.61s"><rect x="34.0" y="234" width="372" height="144" rx="16" fill="#0c1426" stroke="#f9fafb24"/><text class="periodo" x="51.0" y="263">JUN 2022 — SET 2025</text><text class="cargo" x="51.0" y="284">Desenvolvedor Front-end</text><text class="empresa" x="51.0" y="302">MV Sistemas</text><text class="texto" x="51.0" y="322">Aplicações web de grande escala para a área da saúde.</text><g class="tag"><rect x="51.0" y="342" width="43.0" height="19" rx="9.5"/><text x="72.5" y="355" text-anchor="middle">React</text></g><g class="tag"><rect x="99.0" y="342" width="68.0" height="19" rx="9.5"/><text x="133.0" y="355" text-anchor="middle">JavaScript</text></g><g class="tag"><rect x="172.0" y="342" width="68.0" height="19" rx="9.5"/><text x="206.0" y="355" text-anchor="middle">TypeScript</text></g><g class="tag"><rect x="245.0" y="342" width="38.0" height="19" rx="9.5"/><text x="264.0" y="355" text-anchor="middle">Sass</text></g><g class="tag"><rect x="288.0" y="342" width="63.0" height="19" rx="9.5"/><text x="319.5" y="355" text-anchor="middle">Bootstrap</text></g></g><g class="cartao dir" style="animation-delay:0.79s"><rect x="474.0" y="308" width="372" height="160" rx="16" fill="#0c1426" stroke="#f9fafb24"/><text class="periodo" x="491.0" y="337">MAI — JUL 2021</text><text class="cargo" x="491.0" y="358">Técnico de Infraestrutura Cloud</text><text class="empresa" x="491.0" y="376">Alterdata Software</text><text class="texto" x="491.0" y="396">Manutenção de servidores em nuvem, implantação de clientes</text><text class="texto" x="491.0" y="412">e otimização do banco de dados.</text><g class="tag"><rect x="491.0" y="432" width="33.0" height="19" rx="9.5"/><text x="507.5" y="445" text-anchor="middle">AWS</text></g><g class="tag"><rect x="529.0" y="432" width="53.0" height="19" rx="9.5"/><text x="555.5" y="445" text-anchor="middle">Nutanix</text></g><g class="tag"><rect x="587.0" y="432" width="48.0" height="19" rx="9.5"/><text x="611.0" y="445" text-anchor="middle">VMware</text></g></g><g class="cartao esq" style="animation-delay:0.97s"><rect x="34.0" y="400" width="372" height="160" rx="16" fill="#0c1426" stroke="#f9fafb24"/><text class="periodo" x="51.0" y="429">JUL 2020 — JUN 2022</text><text class="cargo" x="51.0" y="450">Técnico de Help Desk</text><text class="empresa" x="51.0" y="468">Alterdata Software</text><text class="texto" x="51.0" y="488">Suporte ao cliente, resolução de problemas e manutenção de</text><text class="texto" x="51.0" y="504">sistemas e banco de dados.</text><g class="tag"><rect x="51.0" y="524" width="68.0" height="19" rx="9.5"/><text x="85.0" y="537" text-anchor="middle">PostgreSQL</text></g><g class="tag"><rect x="124.0" y="524" width="68.0" height="19" rx="9.5"/><text x="158.0" y="537" text-anchor="middle">SQL Server</text></g></g>
<line x1="440.0" y1="54" x2="406.0" y2="54" stroke="#34d399" stroke-opacity=".55" stroke-width="1.5" stroke-dasharray="3 4"/><circle class="pulso" cx="440.0" cy="54" r="20" fill="none" stroke="#34d399" stroke-width="2"/><g class="no" style="animation-delay:0.15s"><circle cx="440.0" cy="54" r="20" fill="#070b16" stroke="#34d399" stroke-width="2.5"/><text class="ano" x="440.0" y="58.5" text-anchor="middle">2026</text></g><line x1="440.0" y1="128" x2="474.0" y2="128" stroke="#2563eb" stroke-opacity=".55" stroke-width="1.5" stroke-dasharray="3 4"/><g class="no" style="animation-delay:0.33s"><circle cx="440.0" cy="128" r="20" fill="#070b16" stroke="#2563eb" stroke-width="2.5"/><text class="ano" x="440.0" y="132.5" text-anchor="middle">2025</text></g><line x1="440.0" y1="260" x2="406.0" y2="260" stroke="#2563eb" stroke-opacity=".55" stroke-width="1.5" stroke-dasharray="3 4"/><g class="no" style="animation-delay:0.51s"><circle cx="440.0" cy="260" r="20" fill="#070b16" stroke="#2563eb" stroke-width="2.5"/><text class="ano" x="440.0" y="264.5" text-anchor="middle">2022</text></g><line x1="440.0" y1="334" x2="474.0" y2="334" stroke="#2563eb" stroke-opacity=".55" stroke-width="1.5" stroke-dasharray="3 4"/><g class="no" style="animation-delay:0.69s"><circle cx="440.0" cy="334" r="20" fill="#070b16" stroke="#2563eb" stroke-width="2.5"/><text class="ano" x="440.0" y="338.5" text-anchor="middle">2021</text></g><line x1="440.0" y1="426" x2="406.0" y2="426" stroke="#2563eb" stroke-opacity=".55" stroke-width="1.5" stroke-dasharray="3 4"/><g class="no" style="animation-delay:0.87s"><circle cx="440.0" cy="426" r="20" fill="#070b16" stroke="#2563eb" stroke-width="2.5"/><text class="ano" x="440.0" y="430.5" text-anchor="middle">2020</text></g>
</g>
<rect x=".5" y=".5" width="879" height="587" rx="18" fill="none" stroke="#f9fafb24"/>
</svg>
